<?xml version="1.0" encoding="UTF-8" standalone="no" ?>
<!DOCTYPE svg PUBLIC "-//W3C//DTD SVG 1.1//EN" "http://www.w3.org/Graphics/SVG/1.1/DTD/svg11.dtd">
<svg xmlns="http://www.w3.org/2000/svg" xmlns:xlink="http://www.w3.org/1999/xlink" version="1.1" width="1080" height="540" viewBox="0 0 1080 540" xml:space="preserve">
<desc>Created with Fabric.js 5.2.4</desc>
<defs>
</defs>
<rect x="0" y="0" width="100%" height="100%" fill="transparent"></rect>
<g transform="matrix(1 0 0 1 540 270)" id="e86786e4-3f4a-4bba-9dc0-dabcf9312cd7"  >
<rect style="stroke: none; stroke-width: 1; stroke-dasharray: none; stroke-linecap: butt; stroke-dashoffset: 0; stroke-linejoin: miter; stroke-miterlimit: 4; fill: rgb(255,255,255); fill-rule: nonzero; opacity: 1; visibility: hidden;" vector-effect="non-scaling-stroke"  x="-540" y="-270" rx="0" ry="0" width="1080" height="540" />
</g>
<g transform="matrix(Infinity NaN NaN Infinity 0 0)" id="7717fcce-7159-4239-a8ba-2816f3096dbd"  >
</g>
<g transform="matrix(2.25 0 0 2.25 1071.27 270)"  >
<g style="" vector-effect="non-scaling-stroke"   >
		<g transform="matrix(1 0 0 1 -230.74 0)" id="container"  >
</g>
		<g transform="matrix(1 0 0 1 0 0)" id="icon_container"  >
</g>
		<g transform="matrix(2.19 0 0 2.19 -427.19 -0.47)"  >
<path style="stroke: rgb(154,19,34); stroke-width: 0; stroke-dasharray: none; stroke-linecap: butt; stroke-dashoffset: 0; stroke-linejoin: miter; stroke-miterlimit: 2; fill: rgb(154,19,34); fill-rule: nonzero; opacity: 1;" vector-effect="non-scaling-stroke"  transform=" translate(-100, -99.28)" d="M 84.08839 76.23581 L 115.91517 76.23581 L 115.91517 81.63632 L 84.08839 81.63632 L 84.08839 76.23581 z M 115.91518 101.72592 L 89.48891 101.72592 L 89.48891 122.31979 L 84.08840000000001 122.31979 L 84.08840000000001 96.32553 L 115.91518 96.32553 L 115.91518 101.72592 z" stroke-linecap="round" />
</g>
		<g transform="matrix(2.19 0 0 2.19 -377.31 -44.97)"  >
<rect style="stroke: rgb(0,28,67); stroke-width: 0; stroke-dasharray: none; stroke-linecap: butt; stroke-dashoffset: 0; stroke-linejoin: miter; stroke-miterlimit: 2; fill: rgb(0,28,67); fill-rule: nonzero; opacity: 1;" vector-effect="non-scaling-stroke"  x="-2.700315" y="-2.700195" rx="0" ry="0" width="5.40063" height="5.40039" />
</g>
		<g transform="matrix(2.19 0 0 2.19 -377.31 8.98)"  >
<rect style="stroke: rgb(154,19,34); stroke-width: 0; stroke-dasharray: none; stroke-linecap: butt; stroke-dashoffset: 0; stroke-linejoin: miter; stroke-miterlimit: 2; fill: rgb(154,19,34); fill-rule: nonzero; opacity: 1;" vector-effect="non-scaling-stroke"  x="-2.700315" y="-18.72162" rx="0" ry="0" width="5.40063" height="37.44324" />
</g>
		<g transform="matrix(2.19 0 0 2.19 -356.36 -0.47)"  >
<path style="stroke: rgb(154,19,34); stroke-width: 0; stroke-dasharray: none; stroke-linecap: butt; stroke-dashoffset: 0; stroke-linejoin: miter; stroke-miterlimit: 2; fill: rgb(154,19,34); fill-rule: nonzero; opacity: 1;" vector-effect="non-scaling-stroke"  transform=" translate(-100, -99.28)" d="M 102.70119 76.23586 L 102.70119 122.31984 L 97.3008 122.31984 L 97.3008 76.23586 L 102.70119 76.23586 z" stroke-linecap="round" />
</g>
		<g transform="matrix(2.19 0 0 2.19 -304.45 8.98)"  >
<path style="stroke: rgb(154,19,34); stroke-width: 0; stroke-dasharray: none; stroke-linecap: butt; stroke-dashoffset: 0; stroke-linejoin: miter; stroke-miterlimit: 2; fill: rgb(154,19,34); fill-rule: nonzero; opacity: 1;" vector-effect="non-scaling-stroke"  transform=" translate(-100, -103.6)" d="M 83.15236 103.52614 C 83.15236 91.06911 89.63295000000001 84.51662 100.00185 84.51662 C 110.37075 84.51662 116.85134000000001 91.06911000000001 116.85134000000001 103.52614 L 116.85134000000001 104.96633 L 88.69679 104.96633 C 88.98487999999999 114.03908 92.08107 117.1354 98.05762999999999 117.1354 L 102.59400999999998 117.1354 C 106.33838999999999 117.1354 109.14661999999998 114.75918 110.87476999999998 110.07876 L 116.27515999999999 110.07876 C 114.25904999999999 118.07144 108.35450999999999 122.67983000000001 100.00183999999999 122.67983000000001 C 89.20094 122.67982 83.15236 115.47926 83.15236 103.52614 z M 111.16286 99.9258 C 110.44265 92.5093 107.41847999999999 89.91700999999999 101.94605999999999 89.91700999999999 L 98.05762999999999 89.91700999999999 C 92.58521999999999 89.91700999999999 89.56092999999998 92.5093 88.84082999999998 99.9258 L 111.16286 99.9258 z" stroke-linecap="round" />
</g>
		<g transform="matrix(2.19 0 0 2.19 -221.04 0)"  >
<path style="stroke: rgb(154,19,34); stroke-width: 0; stroke-dasharray: none; stroke-linecap: butt; stroke-dashoffset: 0; stroke-linejoin: miter; stroke-miterlimit: 2; fill: rgb(154,19,34); fill-rule: nonzero; opacity: 1;" vector-effect="non-scaling-stroke"  transform=" translate(-100, -99.49)" d="M 88.26497 118.07143 L 88.26497 122.31984 L 82.86452 122.31984 L 82.86452 76.23586 L 88.26497 76.23586 L 88.26497 89.12502 C 91.00124000000001 86.24465000000001 94.74556000000001 84.51662 99.49794 84.51662 C 110.01088 84.51662 117.13947999999999 91.57314000000001 117.13947999999999 103.45412 C 117.13947999999999 115.62331 110.01087999999999 122.75185 99.49794 122.75185 C 94.74556 122.75185 91.00124 121.0237 88.26497 118.07143 z M 97.26576 116.99135 L 101.94618 116.99135 C 107.7787 116.99135 111.73903 111.95094 111.73903 103.45412 C 111.73903 94.95742 107.7787 89.91701 101.94618 89.91701 L 97.26576 89.91701 C 91.43324 89.91701 88.26497 94.02138000000001 88.26497 100.50197 L 88.26497 106.40651 C 88.26497 112.88698 91.43324 116.99135 97.26576 116.99135 z" stroke-linecap="round" />
</g>
		<g transform="matrix(2.19 0 0 2.19 -168.61 -0.47)"  >
<path style="stroke: rgb(154,19,34); stroke-width: 0; stroke-dasharray: none; stroke-linecap: butt; stroke-dashoffset: 0; stroke-linejoin: miter; stroke-miterlimit: 2; fill: rgb(154,19,34); fill-rule: nonzero; opacity: 1;" vector-effect="non-scaling-stroke"  transform=" translate(-100, -99.28)" d="M 102.70119 76.23586 L 102.70119 122.31984 L 97.3008 122.31984 L 97.3008 76.23586 L 102.70119 76.23586 z" stroke-linecap="round" />
</g>
		<g transform="matrix(2.19 0 0 2.19 -114.26 8.98)"  >
<path style="stroke: rgb(154,19,34); stroke-width: 0; stroke-dasharray: none; stroke-linecap: butt; stroke-dashoffset: 0; stroke-linejoin: miter; stroke-miterlimit: 2; fill: rgb(154,19,34); fill-rule: nonzero; opacity: 1;" vector-effect="non-scaling-stroke"  transform=" translate(-100, -103.6)" d="M 82.03639 103.45412 C 82.03639 91.42922 88.80494 84.51662 99.96583 84.51662 C 111.63087 84.51662 117.96728999999999 91.42922 117.96728999999999 103.45412 C 117.96728999999999 115.69521 111.12696 122.67983000000001 99.96582999999998 122.67983000000001 C 88.15675 122.67982 82.03639 115.69521 82.03639 103.45412 z M 97.22951 116.99135 L 102.77419 116.99135 C 108.53469000000001 116.99135 112.56691000000001 111.95094 112.56691000000001 103.45412 C 112.56691000000001 94.95742 108.53468000000001 89.91701 102.77419 89.91701 L 97.22951 89.91701 C 91.46926 89.91701 87.43679 94.95742 87.43679 103.45412 C 87.43678 111.95094 91.46925 116.99135 97.22951 116.99135 z" stroke-linecap="round" />
</g>
		<g transform="matrix(2.19 0 0 2.19 -38.22 8.98)"  >
<path style="stroke: rgb(154,19,34); stroke-width: 0; stroke-dasharray: none; stroke-linecap: butt; stroke-dashoffset: 0; stroke-linejoin: miter; stroke-miterlimit: 2; fill: rgb(154,19,34); fill-rule: nonzero; opacity: 1;" vector-effect="non-scaling-stroke"  transform=" translate(-100, -103.6)" d="M 90.06544 84.8766 L 100.00196 98.48572999999999 L 109.93897 84.8766 L 116.56348 84.8766 L 103.4585 102.80617 L 117.71582000000001 122.31984 L 111.09082000000001 122.31984 L 100.00195000000001 107.12648 L 88.9131 122.31984 L 82.28859 122.31984 L 96.54590999999999 102.80617 L 83.44044 84.8766 L 90.06544 84.8766 z" stroke-linecap="round" />
</g>
		<g transform="matrix(1 0 0 1 0 0)" id="icon"  >
</g>
</g>
</g>
</svg>